<svg width="1600" height="1132" viewBox="0 0 1600 1132" fill="none" xmlns="http://www.w3.org/2000/svg">
<rect x="-491.35" y="923.495" width="2431" height="218" transform="rotate(-22.3264 -491.35 923.495)" fill="#F8C429"/>
<path d="M-112.257 879.161L-145.017 820.185L-123.648 811.409L-104.125 850.525L-102.46 849.841L-114.481 808.725L-91.0772 799.114L-70.269 836.621L-68.6039 835.938L-83.3168 794.846L-61.7635 785.995L-43.1566 850.784L-74.5152 863.662L-93.219 826.804L-94.182 827.091L-81.638 866.587L-112.257 879.161ZM-38.6477 848.932L-50.4094 781.332L-17.9407 767.998L21.4795 824.239L-0.166303 833.129L-4.84897 826.728L-19.002 832.54L-17.557 840.271L-38.6477 848.932ZM-28.3249 791.938L-22.9508 815.027L-13.793 811.266L-26.0124 790.988L-28.3249 791.938ZM43.8308 796.359L38.5581 798.524L45.13 814.527L23.6692 823.34L-1.78291 761.363L24.3031 750.65C33.8618 746.725 41.3655 745.517 46.8142 747.027C52.2377 748.475 56.7221 753.516 60.2677 762.15C63.788 770.722 64.0261 777.795 60.9821 783.369L75.7487 801.953L53.9179 810.918L43.8308 796.359ZM36.7864 779.468C39.8082 778.227 40.496 775.603 38.8498 771.594C37.1784 767.524 34.6467 766.185 31.2549 767.578L26.5372 769.516L31.5137 781.634L36.7864 779.468ZM80.7612 799.894L55.3091 737.917L76.3999 729.256L100.294 746.901L101.589 746.37L91.9404 722.874L113.401 714.06L138.853 776.038L117.67 784.737L93.2388 765.258L91.8512 765.828L102.222 791.081L80.7612 799.894ZM144.448 773.74L118.996 711.763L140.456 702.95L165.908 764.927L144.448 773.74ZM171.458 762.648L146.006 700.671L167.097 692.009L190.991 709.655L192.286 709.123L182.637 685.627L204.098 676.814L229.55 738.791L208.367 747.491L183.936 728.011L182.548 728.581L192.919 753.835L171.458 762.648ZM272.164 678.698L286.372 713.295C275.944 719.667 268.048 723.955 262.682 726.158C257.317 728.361 252.482 729.662 248.178 730.061C243.909 730.372 240.126 729.584 236.828 727.695C233.53 725.806 230.677 723.158 228.269 719.751C225.922 716.318 223.558 711.704 221.178 705.907C216.29 694.005 215.091 684.768 217.581 678.196C220.071 671.624 226.589 666.172 237.134 661.842C240.28 660.55 243.94 659.371 248.114 658.306C252.264 657.178 255.611 656.38 258.157 655.911L262.014 655.3L268.662 671.488C259.453 674.333 252.967 676.528 249.205 678.073C245.505 679.592 243.145 680.778 242.126 681.629C241.142 682.393 240.413 683.161 239.937 683.933C239.436 684.643 239.31 685.74 239.558 687.224C239.912 689.313 241.076 692.762 243.052 697.572C245.027 702.383 247.026 705.67 249.047 707.434C251.044 709.137 253.738 709.291 257.13 707.899L260.237 706.514L258.337 701.889L255.562 703.029L249.316 688.081L272.164 678.698Z" fill="#2F2F30"/>
<path d="M1371.12 268.904L1338.36 209.928L1359.73 201.152L1379.25 240.268L1380.92 239.584L1368.9 198.469L1392.3 188.857L1413.11 226.365L1414.77 225.681L1400.06 184.589L1421.61 175.738L1440.22 240.527L1408.86 253.405L1390.16 216.547L1389.19 216.834L1401.74 256.33L1371.12 268.904ZM1444.73 238.675L1432.97 171.075L1465.44 157.742L1504.86 213.983L1483.21 222.872L1478.53 216.471L1464.37 222.283L1465.82 230.014L1444.73 238.675ZM1455.05 181.681L1460.43 204.77L1469.58 201.01L1457.36 180.731L1455.05 181.681ZM1527.21 186.102L1521.93 188.267L1528.51 204.27L1507.05 213.083L1481.59 151.106L1507.68 140.393C1517.24 136.468 1524.74 135.26 1530.19 136.77C1535.61 138.218 1540.1 143.259 1543.64 151.893C1547.16 160.465 1547.4 167.538 1544.36 173.112L1559.12 191.696L1537.29 200.661L1527.21 186.102ZM1520.16 169.212C1523.18 167.971 1523.87 165.346 1522.23 161.337C1520.55 157.267 1518.02 155.929 1514.63 157.322L1509.91 159.259L1514.89 171.377L1520.16 169.212ZM1564.14 189.638L1538.69 127.66L1559.78 118.999L1583.67 136.645L1584.97 136.113L1575.32 112.617L1596.78 103.804L1622.23 165.781L1601.05 174.48L1576.61 155.001L1575.23 155.571L1585.6 180.824L1564.14 189.638ZM1627.82 163.483L1602.37 101.506L1623.83 92.6929L1649.28 154.67L1627.82 163.483ZM1654.83 152.391L1629.38 90.4139L1650.47 81.7526L1674.37 99.3982L1675.66 98.8664L1666.01 75.3705L1687.47 66.5572L1712.93 128.535L1691.74 137.234L1667.31 117.755L1665.92 118.324L1676.29 143.578L1654.83 152.391ZM1755.54 68.4414L1769.75 103.038C1759.32 109.41 1751.42 113.698 1746.06 115.901C1740.69 118.104 1735.86 119.405 1731.55 119.804C1727.29 120.115 1723.5 119.327 1720.2 117.438C1716.91 115.549 1714.05 112.901 1711.64 109.494C1709.3 106.061 1706.93 101.447 1704.55 95.6498C1699.67 83.7477 1698.47 74.5107 1700.96 67.9388C1703.45 61.3668 1709.97 55.9155 1720.51 51.5848C1723.66 50.2932 1727.32 49.1145 1731.49 48.0487C1735.64 46.9212 1738.99 46.123 1741.53 45.654L1745.39 45.0429L1752.04 61.231C1742.83 64.0762 1736.34 66.2712 1732.58 67.8161C1728.88 69.3356 1726.52 70.521 1725.5 71.3722C1724.52 72.1364 1723.79 72.9045 1723.31 73.6764C1722.81 74.3867 1722.69 75.4835 1722.93 76.9668C1723.29 79.0558 1724.45 82.5054 1726.43 87.3156C1728.4 92.1258 1730.4 95.413 1732.42 97.1772C1734.42 98.8798 1737.11 99.0346 1740.51 97.6417L1743.61 96.2576L1741.71 91.6324L1738.94 92.7721L1732.69 77.8245L1755.54 68.4414Z" fill="#2F2F30"/>
<path d="M717.474 616.251L692.022 554.274L713.112 545.613L737.007 563.258L738.302 562.727L728.653 539.231L750.114 530.417L775.566 592.395L754.383 601.094L729.951 581.615L728.564 582.185L738.935 607.438L717.474 616.251ZM788.785 550.751C790.938 555.993 792.988 559.583 794.938 561.521C796.923 563.373 799.519 563.64 802.726 562.323C805.994 560.98 807.653 558.966 807.703 556.279C807.753 553.592 806.689 549.597 804.511 544.293C802.307 538.928 800.256 535.338 798.358 533.523C796.496 531.621 793.931 531.341 790.662 532.684C787.394 534.026 785.716 536.084 785.63 538.858C785.581 541.545 786.632 545.509 788.785 550.751ZM826.156 535.404C830.791 546.689 831.816 555.854 829.231 562.897C826.621 569.879 820.166 575.484 809.868 579.713C799.631 583.917 791.087 584.435 784.236 581.267C777.447 578.073 771.748 570.864 767.139 559.64C762.505 548.355 761.492 539.222 764.102 532.24C766.687 525.197 773.129 519.56 783.428 515.331C793.727 511.102 802.27 510.584 809.059 513.778C815.823 516.91 821.522 524.119 826.156 535.404ZM837.552 494.509L865.581 482.999C880.689 476.794 890.346 478.81 894.55 489.047C896.145 492.932 896.942 496.101 896.94 498.552C896.999 500.978 896.114 503.648 894.283 506.561C897.837 506.616 900.561 507.371 902.456 508.826C904.388 510.195 906.253 513.069 908.051 517.448C912.863 529.165 907.313 538.29 891.403 544.824L863.004 556.487L837.552 494.509ZM879.393 521.108L874.398 523.16L878.577 533.335L883.572 531.284C885.73 530.397 887.04 529.463 887.502 528.481C887.938 527.437 887.763 525.959 886.978 524.047C886.168 522.074 885.21 520.882 884.104 520.471C882.999 520.06 881.428 520.273 879.393 521.108ZM869.543 497.912L864.825 499.849L868.89 509.747L873.7 507.771C875.55 507.012 876.68 506.079 877.091 504.973C877.502 503.868 877.353 502.452 876.644 500.725C875.909 498.937 874.989 497.837 873.884 497.426C872.778 497.015 871.331 497.177 869.543 497.912ZM918.915 533.526L911.356 515.117L932.446 506.456L940.006 524.864L918.915 533.526ZM974.356 459.192C965.281 461.838 958.77 463.971 954.823 465.592C950.876 467.213 948.614 468.286 948.037 468.811C947.497 469.25 947.365 469.808 947.644 470.486C947.923 471.165 948.508 471.537 949.4 471.603C950.292 471.669 952.858 471.336 957.097 470.604C961.399 469.846 964.96 469.393 967.781 469.243C970.639 469.007 973.371 469.254 975.978 469.985C978.621 470.63 980.706 471.935 982.235 473.902C983.799 475.782 985.342 478.572 986.861 482.272C990.001 489.919 990.208 496.212 987.48 501.152C984.752 506.092 979.287 510.246 971.085 513.615C967.138 515.235 962.862 516.667 958.255 517.91C953.71 519.128 950.152 519.941 947.581 520.348L943.631 520.997L937.833 504.244C947.825 501.726 955.843 499.226 961.887 496.744C965.093 495.427 966.406 494.06 965.823 492.641C965.57 492.025 965.023 491.745 964.181 491.802C963.315 491.798 961.146 492.22 957.675 493.069C948.484 495.258 941.733 495.579 937.423 494.034C933.15 492.402 929.67 488.318 926.986 481.781C923.567 473.455 923.229 466.928 925.971 462.198C928.713 457.469 934.247 453.394 942.572 449.975C948.431 447.569 955.547 445.332 963.922 443.262L968.073 442.314L974.356 459.192ZM1015.41 493.896L1003.65 426.297L1036.12 412.963L1075.54 469.204L1053.9 478.093L1049.21 471.692L1035.06 477.505L1036.51 485.235L1015.41 493.896ZM1025.74 436.902L1031.11 459.992L1040.27 456.231L1028.05 435.953L1025.74 436.902ZM1111.31 454.515L1102.42 432.869L1090.3 437.846L1099.19 459.491L1077.73 468.305L1052.28 406.327L1073.74 397.514L1083.12 420.363L1095.24 415.386L1085.86 392.538L1107.32 383.724L1132.77 445.702L1111.31 454.515ZM1138.35 443.412L1112.89 381.435L1159.33 362.365L1166.36 379.478L1141.38 389.735L1143.55 395.007L1162.97 387.03L1169.93 403.958L1150.5 411.935L1152.78 417.486L1177.76 407.229L1184.78 424.342L1138.35 443.412ZM1185.88 423.893L1174.12 356.293L1206.58 342.959L1246 399.2L1224.36 408.089L1219.68 401.689L1205.52 407.501L1206.97 415.231L1185.88 423.893ZM1196.2 366.899L1201.57 389.988L1210.73 386.227L1198.51 365.949L1196.2 366.899ZM1275.3 387.17L1248.19 398.301L1222.74 336.324L1248.92 325.573C1259.59 321.192 1268.25 320.444 1274.92 323.329C1281.58 326.215 1287.09 332.961 1291.44 343.568C1295.78 354.113 1296.78 362.962 1294.45 370.114C1292.11 377.205 1285.72 382.89 1275.3 387.17ZM1270.22 353.475C1267.94 347.925 1265.83 344.465 1263.9 343.096C1262.03 341.702 1259.12 341.815 1255.18 343.436L1251.38 344.994L1262.48 372.005L1266.27 370.447C1269.47 369.13 1271.52 367.353 1272.4 365.117C1273.22 362.906 1272.5 359.025 1270.22 353.475Z" fill="#2F2F30"/>
<line x1="-501.162" y1="946.984" x2="1764.25" y2="16.651" stroke="black" stroke-width="4" stroke-dasharray="15 15"/>
<line x1="-433.543" y1="1111.64" x2="1831.87" y2="181.307" stroke="black" stroke-width="4" stroke-dasharray="15 15"/>
<path d="M344.217 614.948L294.136 635.515L425.746 664.166L352.258 777.045L402.339 756.478L475.827 643.599L344.217 614.948Z" fill="#2F2F30"/>
<path d="M419.145 584.177L369.063 604.744L500.674 633.395L427.186 746.274L477.267 725.708L550.755 612.829L419.145 584.177Z" fill="#2F2F30"/>
<path d="M496.241 552.516L446.767 572.834L577.134 601.996L504.889 714.364L554.363 694.047L626.608 581.678L496.241 552.516Z" fill="#2F2F30"/>
<path d="M1366.83 283.637L1344.67 292.736L1402.96 305.555L1370.51 355.639L1392.66 346.539L1425.12 296.456L1366.83 283.637Z" fill="#2F2F30"/>
<path d="M1405.68 267.682L1383.53 276.781L1441.81 289.6L1409.36 339.684L1431.52 330.584L1463.97 280.501L1405.68 267.682Z" fill="#2F2F30"/>
<path d="M1444.54 251.727L1422.38 260.826L1480.66 273.645L1448.21 323.729L1470.37 314.629L1502.82 264.546L1444.54 251.727Z" fill="#2F2F30"/>
<path d="M1483.39 235.772L1461.23 244.871L1519.52 257.69L1487.06 307.773L1509.22 298.674L1541.67 248.591L1483.39 235.772Z" fill="#2F2F30"/>
<path d="M1522.24 219.817L1500.08 228.916L1558.37 241.735L1525.91 291.818L1548.07 282.719L1580.52 232.636L1522.24 219.817Z" fill="#2F2F30"/>
<path d="M1561.09 203.862L1538.93 212.961L1597.22 225.78L1564.76 275.863L1586.92 266.764L1619.38 216.681L1561.09 203.862Z" fill="#2F2F30"/>
<path d="M1599.94 187.907L1577.78 197.006L1636.07 209.825L1603.62 259.908L1625.77 250.809L1658.23 200.726L1599.94 187.907Z" fill="#2F2F30"/>
<rect x="567.021" y="523.449" width="290" height="12" transform="rotate(-22.3264 567.021 523.449)" fill="#2F2F30"/>
<rect x="576.139" y="545.649" width="290" height="12" transform="rotate(-22.3264 576.139 545.649)" fill="#2F2F30"/>
<path d="M-8.50586 925.199L-0.168068 848.264L12.8389 842.923L4.50105 919.858L-8.50586 925.199Z" fill="#F7F7F7"/>
<path d="M55.3223 898.987L63.6601 822.052L76.667 816.711L68.3292 893.646L55.3223 898.987Z" fill="#F7F7F7"/>
<path d="M119.149 872.775L127.487 795.841L140.494 790.499L132.156 867.434L119.149 872.775Z" fill="#F7F7F7"/>
<path d="M182.977 846.563L191.314 769.629L204.321 764.287L195.983 841.222L182.977 846.563Z" fill="#F7F7F7"/>
<path d="M246.804 820.352L255.142 743.417L268.148 738.075L259.811 815.01L246.804 820.352Z" fill="#F7F7F7"/>
<path d="M10.9199 917.222L19.9277 840.012L33.1897 834.565L24.1819 911.775L10.9199 917.222Z" fill="#F7F7F7"/>
<path d="M74.748 891.01L83.7558 813.8L97.0178 808.354L88.01 885.564L74.748 891.01Z" fill="#F7F7F7"/>
<path d="M138.575 864.798L147.583 787.588L160.845 782.142L151.837 859.352L138.575 864.798Z" fill="#F7F7F7"/>
<path d="M202.402 838.586L211.41 761.376L224.672 755.93L215.664 833.14L202.402 838.586Z" fill="#F7F7F7"/>
<path d="M266.229 812.374L275.237 735.164L288.499 729.718L279.491 806.928L266.229 812.374Z" fill="#F7F7F7"/>
<path d="M-32.5566 935.076L-24.2188 858.141L-11.2119 852.8L-19.5497 929.735L-32.5566 935.076Z" fill="#F7F7F7"/>
<path d="M31.2715 908.864L39.6093 831.929L52.6162 826.588L44.2784 903.523L31.2715 908.864Z" fill="#F7F7F7"/>
<path d="M95.0986 882.652L103.436 805.718L116.443 800.376L108.106 877.311L95.0986 882.652Z" fill="#F7F7F7"/>
<path d="M158.926 856.44L167.264 779.506L180.271 774.164L171.933 851.099L158.926 856.44Z" fill="#F7F7F7"/>
<path d="M222.753 830.229L231.091 753.294L244.098 747.952L235.76 824.887L222.753 830.229Z" fill="#F7F7F7"/>
<path d="M286.581 804.017L294.919 727.082L307.926 721.74L299.588 798.675L286.581 804.017Z" fill="#F7F7F7"/>
<path d="M867.159 467.216L875.497 390.281L888.504 384.939L880.166 461.874L867.159 467.216Z" fill="#F7F7F7"/>
<path d="M930.986 441.004L939.324 364.069L952.331 358.728L943.993 435.662L930.986 441.004Z" fill="#F7F7F7"/>
<path d="M994.813 414.792L1003.15 337.857L1016.16 332.516L1007.82 409.45L994.813 414.792Z" fill="#F7F7F7"/>
<path d="M1058.64 388.58L1066.98 311.645L1079.99 306.304L1071.65 383.239L1058.64 388.58Z" fill="#F7F7F7"/>
<path d="M1122.47 362.368L1130.81 285.433L1143.81 280.092L1135.48 357.027L1122.47 362.368Z" fill="#F7F7F7"/>
<path d="M1186.3 336.156L1194.63 259.221L1207.64 253.88L1199.3 330.815L1186.3 336.156Z" fill="#F7F7F7"/>
<path d="M1250.12 309.944L1258.46 233.01L1271.47 227.668L1263.13 304.603L1250.12 309.944Z" fill="#F7F7F7"/>
<path d="M886.585 459.238L895.593 382.028L908.855 376.582L899.847 453.792L886.585 459.238Z" fill="#F7F7F7"/>
<path d="M950.412 433.026L959.42 355.816L972.682 350.37L963.674 427.58L950.412 433.026Z" fill="#F7F7F7"/>
<path d="M1014.24 406.814L1023.25 329.604L1036.51 324.158L1027.5 401.368L1014.24 406.814Z" fill="#F7F7F7"/>
<path d="M1078.07 380.603L1087.08 303.393L1100.34 297.946L1091.33 375.156L1078.07 380.603Z" fill="#F7F7F7"/>
<path d="M1141.89 354.391L1150.9 277.181L1164.16 271.734L1155.16 348.944L1141.89 354.391Z" fill="#F7F7F7"/>
<path d="M1205.72 328.179L1214.73 250.969L1227.99 245.522L1218.98 322.732L1205.72 328.179Z" fill="#F7F7F7"/>
<path d="M1269.55 301.967L1278.56 224.757L1291.82 219.311L1282.81 296.521L1269.55 301.967Z" fill="#F7F7F7"/>
<path d="M906.936 450.881L915.273 373.946L928.28 368.604L919.942 445.539L906.936 450.881Z" fill="#F7F7F7"/>
<path d="M970.763 424.669L979.1 347.734L992.107 342.393L983.77 419.327L970.763 424.669Z" fill="#F7F7F7"/>
<path d="M1034.59 398.457L1042.93 321.522L1055.94 316.181L1047.6 393.116L1034.59 398.457Z" fill="#F7F7F7"/>
<path d="M1098.42 372.245L1106.76 295.31L1119.76 289.969L1111.42 366.904L1098.42 372.245Z" fill="#F7F7F7"/>
<path d="M1162.25 346.033L1170.58 269.098L1183.59 263.757L1175.25 340.692L1162.25 346.033Z" fill="#F7F7F7"/>
<path d="M1226.07 319.821L1234.41 242.886L1247.42 237.545L1239.08 314.48L1226.07 319.821Z" fill="#F7F7F7"/>
<path d="M1289.9 293.609L1298.24 216.675L1311.25 211.333L1302.91 288.268L1289.9 293.609Z" fill="#F7F7F7"/>
</svg>
