<svg width="1600" height="243" viewBox="0 0 1600 243" fill="none" xmlns="http://www.w3.org/2000/svg">
<rect x="-16.5068" y="1.2627" width="1623.73" height="144.479" transform="rotate(3.40658 -16.5068 1.2627)" fill="#F8C429"/>
<path d="M1286.4 132.868L1277.68 132.349L1278.87 112.402L1287.29 112.904C1290.73 113.108 1293.15 114.029 1294.57 115.667C1295.98 117.305 1296.59 119.831 1296.39 123.245C1296.19 126.639 1295.31 129.146 1293.76 130.766C1292.21 132.367 1289.76 133.068 1286.4 132.868ZM1289.4 123.157C1289.51 121.371 1289.39 120.169 1289.05 119.551C1288.73 118.935 1287.93 118.588 1286.66 118.513L1285.44 118.44L1284.92 127.133L1286.14 127.206C1287.17 127.267 1287.95 127.055 1288.48 126.568C1288.99 126.081 1289.3 124.944 1289.4 123.157ZM1306.07 128.87L1304.37 128.769L1304.07 133.92L1297.16 133.508L1298.35 113.562L1306.74 114.062C1309.82 114.245 1311.99 114.892 1313.26 116.003C1314.53 117.095 1315.08 119.029 1314.92 121.808C1314.75 124.567 1313.9 126.498 1312.36 127.601L1313.92 134.506L1306.89 134.088L1306.07 128.87ZM1306.36 123.42C1307.34 123.478 1307.86 122.862 1307.94 121.572C1308.02 120.262 1307.51 119.575 1306.42 119.51L1304.9 119.419L1304.67 123.319L1306.36 123.42ZM1315.53 134.602L1316.72 114.656L1323.63 115.067L1322.44 135.013L1315.53 134.602ZM1324.23 135.12L1325.41 115.173L1332.2 115.577L1336.34 123.412L1336.75 123.437L1337.2 115.875L1344.11 116.286L1342.92 136.232L1336.11 135.827L1332.06 127.43L1331.62 127.403L1331.13 135.531L1324.23 135.12ZM1352.03 130.112L1351.63 136.751L1344.72 136.34L1345.91 116.393L1352.82 116.804L1352.4 123.86L1353.59 123.931L1356.24 117.008L1363.09 117.416L1359.33 126.872L1362.2 137.38L1355.26 136.967L1353.25 130.185L1352.03 130.112ZM1376.4 128.217C1376.3 129.904 1376.39 131.134 1376.66 131.907C1376.96 132.662 1377.62 133.069 1378.65 133.131C1379.7 133.194 1380.41 132.867 1380.77 132.152C1381.13 131.436 1381.36 130.225 1381.47 128.518C1381.57 126.791 1381.48 125.561 1381.21 124.828C1380.95 124.076 1380.3 123.669 1379.25 123.606C1378.2 123.543 1377.48 123.879 1377.1 124.613C1376.74 125.329 1376.5 126.53 1376.4 128.217ZM1388.43 128.933C1388.22 132.565 1387.3 135.16 1385.7 136.717C1384.09 138.255 1381.63 138.925 1378.32 138.728C1375.02 138.532 1372.66 137.564 1371.23 135.826C1369.82 134.089 1369.22 131.414 1369.44 127.802C1369.65 124.17 1370.56 121.585 1372.17 120.048C1373.78 118.49 1376.24 117.81 1379.55 118.007C1382.87 118.205 1385.23 119.172 1386.64 120.909C1388.05 122.626 1388.65 125.301 1388.43 128.933ZM1389.21 138.987L1390.39 119.041L1397.18 119.445L1401.31 127.28L1401.73 127.305L1402.18 119.743L1409.09 120.154L1407.9 140.1L1401.08 139.695L1397.04 131.298L1396.6 131.271L1396.11 139.399L1389.21 138.987ZM1415.06 140.526L1420.65 120.842L1431.1 121.464L1434.41 141.678L1427.44 141.263L1427.01 138.937L1422.46 138.666L1421.84 140.93L1415.06 140.526ZM1425.21 126.551L1423.66 133.45L1426.61 133.625L1425.95 126.595L1425.21 126.551ZM1441.51 142.101L1442.69 122.154L1452.97 122.766L1454.06 130.479L1455.79 122.934L1466.36 123.563L1465.18 143.51L1458.27 143.099L1458.88 132.828L1458.55 132.808L1456.23 142.768L1450.45 142.424L1449.35 132.261L1449.03 132.241L1448.41 142.512L1441.51 142.101ZM1466.98 143.617L1468.16 123.67L1475.07 124.082L1473.88 144.028L1466.98 143.617ZM1491.7 130.837C1488.92 130.373 1486.89 130.103 1485.62 130.028C1484.35 129.952 1483.6 129.947 1483.38 130.014C1483.18 130.061 1483.07 130.194 1483.06 130.413C1483.05 130.631 1483.15 130.807 1483.39 130.94C1483.62 131.073 1484.35 131.316 1485.58 131.669C1486.84 132.022 1487.85 132.361 1488.63 132.686C1489.43 132.993 1490.13 133.413 1490.74 133.947C1491.36 134.462 1491.75 135.083 1491.91 135.81C1492.09 136.517 1492.14 137.466 1492.07 138.657C1491.92 141.118 1491.16 142.836 1489.79 143.81C1488.42 144.784 1486.41 145.192 1483.77 145.035C1482.5 144.959 1481.17 144.79 1479.77 144.528C1478.39 144.266 1477.33 144.024 1476.58 143.8L1475.44 143.463L1476.05 138.212C1479.06 138.829 1481.54 139.196 1483.48 139.311C1484.52 139.373 1485.05 139.175 1485.07 138.719C1485.09 138.52 1484.97 138.374 1484.74 138.281C1484.51 138.167 1483.87 138 1482.83 137.779C1480.08 137.177 1478.22 136.389 1477.26 135.416C1476.33 134.424 1475.92 132.876 1476.05 130.772C1476.21 128.093 1476.96 126.295 1478.31 125.38C1479.66 124.464 1481.67 124.086 1484.35 124.246C1486.24 124.358 1488.44 124.678 1490.96 125.206L1492.19 125.489L1491.7 130.837ZM1508.91 131.862C1506.13 131.398 1504.1 131.128 1502.83 131.052C1501.56 130.976 1500.81 130.972 1500.59 131.038C1500.39 131.086 1500.28 131.219 1500.27 131.437C1500.26 131.656 1500.37 131.831 1500.6 131.965C1500.83 132.098 1501.56 132.341 1502.79 132.693C1504.05 133.046 1505.06 133.386 1505.84 133.711C1506.64 134.017 1507.34 134.438 1507.95 134.972C1508.57 135.487 1508.96 136.108 1509.12 136.834C1509.3 137.542 1509.35 138.491 1509.28 139.682C1509.13 142.143 1508.37 143.86 1507 144.834C1505.63 145.808 1503.62 146.217 1500.98 146.059C1499.71 145.984 1498.38 145.815 1496.98 145.552C1495.6 145.291 1494.54 145.049 1493.8 144.825L1492.65 144.488L1493.26 139.236C1496.27 139.854 1498.75 140.22 1500.7 140.336C1501.73 140.397 1502.26 140.2 1502.28 139.743C1502.3 139.545 1502.19 139.399 1501.95 139.305C1501.72 139.192 1501.08 139.025 1500.04 138.803C1497.29 138.201 1495.43 137.413 1494.47 136.44C1493.54 135.448 1493.13 133.9 1493.26 131.797C1493.42 129.117 1494.17 127.32 1495.52 126.404C1496.87 125.489 1498.88 125.111 1501.56 125.27C1503.45 125.382 1505.65 125.703 1508.17 126.231L1509.41 126.514L1508.91 131.862ZM1510.09 146.183L1511.28 126.237L1518.19 126.648L1517 146.595L1510.09 146.183ZM1525.93 137.117C1525.83 138.804 1525.91 140.035 1526.19 140.808C1526.48 141.562 1527.14 141.97 1528.17 142.031C1529.23 142.094 1529.93 141.768 1530.29 141.052C1530.66 140.337 1530.89 139.126 1530.99 137.419C1531.09 135.692 1531 134.462 1530.73 133.729C1530.48 132.976 1529.82 132.569 1528.77 132.507C1527.72 132.444 1527 132.78 1526.62 133.514C1526.26 134.229 1526.03 135.43 1525.93 137.117ZM1537.95 137.833C1537.74 141.465 1536.83 144.06 1535.22 145.618C1533.62 147.155 1531.16 147.826 1527.84 147.628C1524.55 147.432 1522.18 146.465 1520.75 144.727C1519.34 142.99 1518.75 140.315 1518.96 136.703C1519.18 133.071 1520.09 130.486 1521.69 128.948C1523.3 127.391 1525.76 126.711 1529.07 126.908C1532.39 127.105 1534.75 128.072 1536.16 129.809C1537.57 131.527 1538.17 134.201 1537.95 137.833ZM1538.73 147.888L1539.92 127.942L1546.7 128.346L1550.84 136.18L1551.25 136.205L1551.7 128.643L1558.61 129.054L1557.42 149.001L1550.61 148.595L1546.57 140.198L1546.12 140.172L1545.63 148.299L1538.73 147.888Z" fill="#2F2F30"/>
<path d="M994.816 177.465C990.073 178.334 985.253 178.622 980.357 178.331C975.462 178.04 971.731 177.131 969.166 175.607C966.604 174.038 964.825 171.586 963.828 168.251C962.876 164.919 962.582 160.188 962.947 154.057C963.469 145.281 965.172 139.362 968.054 136.303C970.982 133.202 976.262 131.878 983.892 132.333C987.068 132.522 990.79 133.186 995.06 134.325L997.348 134.926L996.246 146.745C992.656 146.088 989.317 145.668 986.23 145.485C983.186 145.303 981.188 145.782 980.235 146.92C979.285 148.015 978.701 150.392 978.483 154.053C978.265 157.713 978.313 160.261 978.625 161.696C978.983 163.134 979.61 164.123 980.507 164.663C981.407 165.159 982.893 165.469 984.966 165.592L995.311 165.81L994.816 177.465ZM995.374 178.362L1007.8 134.619L1031.02 136.001L1038.38 180.921L1022.9 180L1021.94 174.831L1011.82 174.228L1010.46 179.26L995.374 178.362ZM1017.94 147.306L1014.5 162.637L1021.05 163.027L1019.59 147.404L1017.94 147.306ZM1056.7 137.529L1054.97 166.573C1054.89 167.852 1055.15 168.774 1055.73 169.34C1056.36 169.909 1057.43 170.238 1058.93 170.327C1060.43 170.416 1061.5 170.215 1062.15 169.722C1062.8 169.23 1063.16 168.344 1063.24 167.065L1064.97 138.022L1080.31 138.935L1078.64 167.118C1078.26 173.381 1076.43 177.699 1073.15 180.07C1069.87 182.398 1064.86 183.361 1058.11 182.959C1051.4 182.56 1046.56 181.032 1043.57 178.376C1040.59 175.72 1039.28 171.282 1039.65 165.063L1041.35 136.616L1056.7 137.529ZM1081.86 151.575L1082.6 139.072L1115.68 141.041L1114.94 153.544L1106.34 153.032L1104.44 184.854L1089.1 183.941L1090.99 152.119L1081.86 151.575ZM1115.66 185.522L1118.3 141.196L1133.65 142.11L1131.01 186.436L1115.66 185.522ZM1150.85 165.375C1150.63 169.124 1150.82 171.858 1151.43 173.576C1152.08 175.252 1153.55 176.159 1155.85 176.295C1158.18 176.435 1159.75 175.709 1160.56 174.119C1161.36 172.529 1161.87 169.838 1162.1 166.045C1162.33 162.208 1162.14 159.474 1161.53 157.845C1160.96 156.173 1159.51 155.268 1157.17 155.129C1154.83 154.99 1153.24 155.736 1152.39 157.367C1151.59 158.957 1151.08 161.627 1150.85 165.375ZM1177.58 166.966C1177.1 175.038 1175.07 180.804 1171.5 184.265C1167.94 187.682 1162.47 189.171 1155.11 188.733C1147.78 188.297 1142.53 186.148 1139.36 182.285C1136.22 178.425 1134.89 172.481 1135.37 164.454C1135.85 156.383 1137.88 150.639 1141.44 147.222C1145.01 143.76 1150.48 142.249 1157.85 142.687C1165.21 143.126 1170.46 145.275 1173.6 149.135C1176.73 152.952 1178.06 158.895 1177.58 166.966ZM1179.3 189.31L1181.94 144.985L1197.02 145.882L1206.21 163.293L1207.14 163.348L1208.14 146.544L1223.48 147.458L1220.85 191.783L1205.7 190.881L1196.72 172.222L1195.72 172.163L1194.65 190.224L1179.3 189.31Z" fill="#2F2F30"/>
<path d="M227.181 72.0175L223.41 71.7931L222.728 83.2383L207.38 82.3247L210.018 37.9991L228.675 39.1097C235.511 39.5166 240.338 40.9548 243.157 43.4241C245.978 45.8494 247.205 50.1494 246.837 56.3241C246.472 62.4547 244.579 66.746 241.158 69.198L244.626 84.5418L229.013 83.6124L227.181 72.0175ZM227.835 59.9068C229.996 60.0354 231.162 58.6663 231.333 55.7995C231.506 52.8886 230.38 51.3609 227.954 51.2165L224.58 51.0157L224.064 59.6823L227.835 59.9068ZM248.211 84.7552L250.85 40.4297L284.061 42.4066L283.332 54.6457L265.47 53.5825L265.245 57.3534L279.138 58.1804L278.418 70.2873L264.525 69.4603L264.288 73.4297L282.151 74.493L281.422 86.7321L248.211 84.7552ZM287.159 42.591L307.205 43.7843C318.01 44.4275 323.195 48.4098 322.76 55.7312C322.594 58.5099 322.158 60.6306 321.451 62.0934C320.789 63.5588 319.492 64.898 317.561 66.1109C319.667 67.1657 321.076 68.4004 321.788 69.8149C322.548 71.188 322.834 73.4402 322.648 76.5717C322.149 84.9516 316.21 88.8029 304.831 88.1255L284.52 86.9166L287.159 42.591ZM304.485 70.5111L300.913 70.2985L300.479 77.5758L304.052 77.7884C305.596 77.8803 306.646 77.6994 307.205 77.2458C307.765 76.748 308.086 75.8155 308.168 74.4483C308.252 73.0369 308.023 72.0495 307.481 71.4862C306.939 70.9228 305.941 70.5977 304.485 70.5111ZM305.279 53.8276L301.905 53.6268L301.484 60.7056L304.924 60.9104C306.247 60.9892 307.19 60.7576 307.754 60.2157C308.317 59.6739 308.635 58.7855 308.709 57.5505C308.785 56.2715 308.552 55.3503 308.01 54.7869C307.468 54.2235 306.558 53.9037 305.279 53.8276ZM324.706 89.3086L327.344 44.9831L360.556 46.96L359.827 59.1992L341.964 58.1359L341.74 61.9069L355.633 62.7339L354.912 74.8407L341.019 74.0137L340.783 77.9831L358.646 79.0464L357.917 91.2856L324.706 89.3086ZM390.786 93.2421L361.015 91.47L363.654 47.1444L379.002 48.0581L377.108 79.8798L391.53 80.7384L390.786 93.2421ZM429.002 63.848C422.822 62.8163 418.321 62.2164 415.499 62.0484C412.676 61.8803 411.017 61.8701 410.521 62.0176C410.072 62.1237 409.833 62.4193 409.804 62.9044C409.776 63.3896 410.018 63.7802 410.531 64.0764C411.045 64.3725 412.673 64.912 415.414 65.6949C418.2 66.4804 420.457 67.2344 422.185 67.9569C423.959 68.6379 425.519 69.5717 426.864 70.7583C428.257 71.9035 429.126 73.2831 429.473 74.8971C429.866 76.4697 429.984 78.5791 429.826 81.2254C429.501 86.6944 427.813 90.5111 424.763 92.6754C421.713 94.8397 417.255 95.7472 411.389 95.398C408.566 95.23 405.601 94.8543 402.493 94.271C399.429 93.6902 397.071 93.1515 395.419 92.6548L392.874 91.9058L394.233 80.2353C400.923 81.6073 406.43 82.422 410.752 82.6792C413.045 82.8158 414.222 82.3768 414.283 81.3624C414.309 80.9214 414.063 80.5969 413.544 80.3889C413.028 80.1369 411.611 79.7649 409.295 79.2729C403.178 77.9351 399.055 76.1848 396.927 74.022C394.845 71.8178 393.943 68.3782 394.221 63.703C394.576 57.7489 396.252 53.7545 399.25 51.7199C402.248 49.6853 406.724 48.8452 412.678 49.1996C416.868 49.449 421.761 50.1608 427.357 51.3348L430.108 51.9633L429.002 63.848ZM443.528 96.3817L455.958 52.639L479.18 54.0213L486.531 98.9414L471.05 98.0199L470.096 92.851L459.974 92.2484L458.612 97.2796L443.528 96.3817ZM466.091 65.3255L462.656 80.6567L469.205 81.0466L467.745 65.424L466.091 65.3255ZM512.112 100.464L513.034 84.9833L504.367 84.4675L503.445 99.9483L488.097 99.0347L490.735 54.7091L506.084 55.6228L505.111 71.9637L513.778 72.4796L514.751 56.1387L530.099 57.0523L527.461 101.378L512.112 100.464ZM531.448 101.615L534.087 57.2897L567.298 59.2666L566.569 71.5057L548.707 70.4424L548.482 74.2134L562.375 75.0404L561.655 87.1473L547.762 86.3203L547.525 90.2897L565.388 91.353L564.659 103.592L531.448 101.615ZM565.442 103.639L577.872 59.896L601.093 61.2783L608.444 106.198L592.963 105.277L592.009 100.108L581.887 99.5055L580.526 104.537L565.442 103.639ZM588.005 72.5825L584.569 87.9137L591.119 88.3036L589.659 72.681L588.005 72.5825ZM629.394 107.446L610.01 106.292L612.649 61.9662L631.371 63.0806C639.001 63.5348 644.39 65.5818 647.537 69.2215C650.685 72.8612 652.032 78.4741 651.581 86.0602C651.132 93.6021 649.185 99.1738 645.739 102.775C642.296 106.332 636.848 107.889 629.394 107.446ZM636.057 85.8664C636.293 81.897 636.031 79.2257 635.272 77.8527C634.557 76.4823 632.788 75.7131 629.965 75.545L627.253 75.3836L626.103 94.7016L628.815 94.863C631.109 94.9995 632.841 94.5273 634.012 93.4462C635.139 92.3624 635.82 89.8359 636.057 85.8664Z" fill="#2F2F30"/>
<line x1="-29.1244" y1="12.462" x2="1618.86" y2="110.56" stroke="black" stroke-width="2.65098" stroke-dasharray="9.94 9.94"/>
<line x1="-36.1332" y1="130.223" x2="1611.85" y2="228.321" stroke="black" stroke-width="2.65098" stroke-dasharray="9.94 9.94"/>
<path d="M18.051 24.5647L-17.7666 22.4326L52.5631 77.4089L-23.7919 123.654L12.0257 125.786L88.3806 79.541L18.051 24.5647Z" fill="#2F2F30"/>
<path d="M71.6389 27.7542L35.8213 25.6221L106.151 80.5983L29.796 126.843L65.6136 128.975L141.969 82.7304L71.6389 27.7542Z" fill="#2F2F30"/>
<path d="M126.777 31.0369L91.3936 28.9307L160.834 83.854L85.3683 130.152L120.752 132.258L196.218 85.9603L126.777 31.0369Z" fill="#2F2F30"/>
<path d="M762.985 68.9084L727.167 66.7764L797.497 121.753L721.142 167.997L756.959 170.129L833.314 123.885L762.985 68.9084Z" fill="#2F2F30"/>
<path d="M816.572 72.0989L780.755 69.9668L851.085 124.943L774.73 171.188L810.547 173.32L886.902 127.075L816.572 72.0989Z" fill="#2F2F30"/>
<path d="M871.711 75.3807L836.327 73.2744L905.768 128.198L830.302 174.495L865.685 176.602L941.151 130.304L871.711 75.3807Z" fill="#2F2F30"/>
<path d="M1276.98 153.944L1261.14 153.001L1292.25 177.426L1258.46 197.988L1274.3 198.931L1308.09 178.369L1276.98 153.944Z" fill="#2F2F30"/>
<path d="M1304.77 155.6L1288.92 154.656L1320.03 179.081L1286.24 199.643L1302.09 200.587L1335.88 180.025L1304.77 155.6Z" fill="#2F2F30"/>
<path d="M1332.55 157.253L1316.71 156.31L1347.82 180.735L1314.03 201.297L1329.88 202.24L1363.66 181.678L1332.55 157.253Z" fill="#2F2F30"/>
<path d="M1360.34 158.907L1344.49 157.964L1375.6 182.389L1341.82 202.951L1357.66 203.894L1391.45 183.332L1360.34 158.907Z" fill="#2F2F30"/>
<path d="M1388.13 160.561L1372.28 159.618L1403.39 184.043L1369.6 204.605L1385.45 205.549L1419.24 184.987L1388.13 160.561Z" fill="#2F2F30"/>
<path d="M1415.91 162.215L1400.07 161.271L1431.18 185.697L1397.39 206.259L1413.24 207.202L1447.02 186.64L1415.91 162.215Z" fill="#2F2F30"/>
<path d="M1443.7 163.868L1427.85 162.925L1458.96 187.35L1425.17 207.912L1441.02 208.855L1474.81 188.293L1443.7 163.868Z" fill="#2F2F30"/>
<path d="M1471.49 165.522L1455.64 164.579L1486.75 189.004L1452.96 209.566L1468.81 210.509L1502.59 189.947L1471.49 165.522Z" fill="#2F2F30"/>
<path d="M1499.27 167.178L1483.42 166.234L1514.53 190.659L1480.75 211.221L1496.59 212.165L1530.38 191.603L1499.27 167.178Z" fill="#2F2F30"/>
<rect x="518.021" y="122.709" width="192.196" height="7.95295" transform="rotate(3.40658 518.021 122.709)" fill="#2F2F30"/>
<rect x="517.077" y="138.588" width="192.196" height="7.95295" transform="rotate(3.40658 517.077 138.588)" fill="#2F2F30"/>
<path d="M179.973 135.782L207.089 92.2496L216.392 92.8034L189.276 136.336L179.973 135.782Z" fill="#F7F7F7"/>
<path d="M225.622 138.499L252.738 94.9664L262.04 95.5201L234.924 139.053L225.622 138.499Z" fill="#F7F7F7"/>
<path d="M271.27 141.218L298.386 97.6852L307.689 98.2389L280.573 141.771L271.27 141.218Z" fill="#F7F7F7"/>
<path d="M316.92 143.934L344.036 100.402L353.338 100.956L326.222 144.488L316.92 143.934Z" fill="#F7F7F7"/>
<path d="M362.567 146.651L389.683 103.119L398.985 103.672L371.87 147.205L362.567 146.651Z" fill="#F7F7F7"/>
<path d="M408.217 149.368L435.332 105.836L444.635 106.389L417.519 149.922L408.217 149.368Z" fill="#F7F7F7"/>
<path d="M453.865 152.087L480.981 108.554L490.283 109.108L463.167 152.64L453.865 152.087Z" fill="#F7F7F7"/>
<path d="M193.866 136.61L221.461 93.1063L230.946 93.6709L203.351 137.175L193.866 136.61Z" fill="#F7F7F7"/>
<path d="M239.514 139.327L267.109 95.8231L276.594 96.3877L248.999 139.892L239.514 139.327Z" fill="#F7F7F7"/>
<path d="M285.164 142.044L312.759 98.5399L322.244 99.1045L294.649 142.608L285.164 142.044Z" fill="#F7F7F7"/>
<path d="M330.812 144.762L358.407 101.258L367.892 101.822L340.297 145.326L330.812 144.762Z" fill="#F7F7F7"/>
<path d="M376.461 147.479L404.056 103.975L413.541 104.54L385.946 148.044L376.461 147.479Z" fill="#F7F7F7"/>
<path d="M422.11 150.196L449.705 106.692L459.19 107.257L431.595 150.761L422.11 150.196Z" fill="#F7F7F7"/>
<path d="M467.759 152.913L495.354 109.409L504.838 109.974L477.243 153.477L467.759 152.913Z" fill="#F7F7F7"/>
<path d="M208.421 137.475L235.537 93.943L244.839 94.4967L217.723 138.029L208.421 137.475Z" fill="#F7F7F7"/>
<path d="M254.069 140.193L281.185 96.6607L290.487 97.2145L263.372 140.747L254.069 140.193Z" fill="#F7F7F7"/>
<path d="M299.719 142.91L326.834 99.3775L336.137 99.9313L309.021 143.464L299.719 142.91Z" fill="#F7F7F7"/>
<path d="M345.367 145.628L372.483 102.095L381.785 102.649L354.669 146.181L345.367 145.628Z" fill="#F7F7F7"/>
<path d="M391.015 148.345L418.131 104.812L427.434 105.366L400.318 148.898L391.015 148.345Z" fill="#F7F7F7"/>
<path d="M436.665 151.063L463.781 107.531L473.083 108.085L445.967 151.617L436.665 151.063Z" fill="#F7F7F7"/>
<path d="M482.312 153.78L509.428 110.248L518.731 110.801L491.615 154.334L482.312 153.78Z" fill="#F7F7F7"/>
<path d="M925.844 119.764L952.959 76.232L962.262 76.7858L935.146 120.318L925.844 119.764Z" fill="#F7F7F7"/>
<path d="M971.492 122.481L998.608 78.9488L1007.91 79.5026L980.794 123.035L971.492 122.481Z" fill="#F7F7F7"/>
<path d="M1017.14 125.2L1044.26 81.6676L1053.56 82.2213L1026.44 125.754L1017.14 125.2Z" fill="#F7F7F7"/>
<path d="M1062.79 127.917L1089.91 84.3844L1099.21 84.9381L1072.09 128.471L1062.79 127.917Z" fill="#F7F7F7"/>
<path d="M1108.44 130.635L1135.55 87.1022L1144.86 87.6559L1117.74 131.188L1108.44 130.635Z" fill="#F7F7F7"/>
<path d="M1154.09 133.35L1181.2 89.818L1190.5 90.3717L1163.39 133.904L1154.09 133.35Z" fill="#F7F7F7"/>
<path d="M1199.74 136.069L1226.85 92.5367L1236.15 93.0905L1209.04 136.623L1199.74 136.069Z" fill="#F7F7F7"/>
<path d="M939.736 120.593L967.331 77.0887L976.816 77.6533L949.221 121.157L939.736 120.593Z" fill="#F7F7F7"/>
<path d="M985.386 123.309L1012.98 79.8055L1022.47 80.3701L994.87 123.874L985.386 123.309Z" fill="#F7F7F7"/>
<path d="M1031.03 126.026L1058.63 82.5223L1068.11 83.0869L1040.52 126.591L1031.03 126.026Z" fill="#F7F7F7"/>
<path d="M1076.68 128.744L1104.28 85.2401L1113.76 85.8046L1086.17 129.309L1076.68 128.744Z" fill="#F7F7F7"/>
<path d="M1122.33 131.462L1149.93 87.9578L1159.41 88.5224L1131.82 132.026L1122.33 131.462Z" fill="#F7F7F7"/>
<path d="M1167.98 134.179L1195.58 90.6746L1205.06 91.2392L1177.47 134.743L1167.98 134.179Z" fill="#F7F7F7"/>
<path d="M1213.63 136.895L1241.22 93.3914L1250.71 93.956L1223.11 137.46L1213.63 136.895Z" fill="#F7F7F7"/>
<path d="M954.291 121.458L981.407 77.9254L990.709 78.4791L963.593 122.012L954.291 121.458Z" fill="#F7F7F7"/>
<path d="M999.94 124.177L1027.06 80.6441L1036.36 81.1979L1009.24 124.73L999.94 124.177Z" fill="#F7F7F7"/>
<path d="M1045.59 126.893L1072.7 83.3609L1082.01 83.9147L1054.89 127.447L1045.59 126.893Z" fill="#F7F7F7"/>
<path d="M1091.24 129.61L1118.35 86.0777L1127.66 86.6315L1100.54 130.164L1091.24 129.61Z" fill="#F7F7F7"/>
<path d="M1136.89 132.327L1164 88.7945L1173.3 89.3483L1146.19 132.881L1136.89 132.327Z" fill="#F7F7F7"/>
<path d="M1182.53 135.046L1209.65 91.5133L1218.95 92.067L1191.84 135.599L1182.53 135.046Z" fill="#F7F7F7"/>
<path d="M1228.18 137.762L1255.3 94.2301L1264.6 94.7838L1237.49 138.316L1228.18 137.762Z" fill="#F7F7F7"/>
</svg>
