<svg width="1600" height="104" viewBox="0 0 1600 104" fill="none" xmlns="http://www.w3.org/2000/svg">
<path d="M29.1436 0.284108C-46.4973 -0.649809 -111.586 60.033 -111.586 60.033V103.999H2027V60.033C2027 60.033 1967.37 0.284108 1893.81 0.284108C1820.25 0.284108 1834.18 60.033 1760.62 60.033C1687.06 60.033 1700.99 0.284108 1627.43 0.284108C1553.87 0.284108 1567.8 60.033 1494.24 60.033C1420.68 60.033 1434.61 0.284108 1361.05 0.284108C1287.49 0.284108 1301.42 60.033 1227.86 60.033C1154.3 60.033 1168.23 0.284108 1094.67 0.284108C1021.11 0.284108 1035.04 60.033 961.477 60.033C887.918 60.033 901.845 0.284108 828.286 0.284108C754.727 0.284108 768.655 60.033 695.096 60.033C621.537 60.033 635.464 0.284108 561.905 0.284108C488.346 0.284108 502.274 60.033 428.715 60.033C355.156 60.033 369.084 0.284108 295.525 0.284108C221.965 0.284108 235.893 60.033 162.334 60.033C88.775 60.033 102.675 1.19198 29.1436 0.284108Z" fill="white"/>
</svg>
